<svg xmlns="http://www.w3.org/2000/svg" viewBox="0 0 64 64">
  <defs>
    <linearGradient id="eg" x1="8" y1="6" x2="56" y2="58" gradientUnits="userSpaceOnUse">
      <stop stop-color="#146ef5"/>
      <stop offset="1" stop-color="#7c4dff"/>
    </linearGradient>
  </defs>
  <rect width="64" height="64" rx="15" fill="#071b43"/>
  <path d="M14 15h20v7H22v7h11v7H22v7h12v7H14V15Z" fill="#fff"/>
  <path d="M51 25c-2-3-5-4-8-4-6 0-10 4-10 11s4 11 10 11c2 0 4 0 5-1v-6h-7v-6h14v17c-3 2-7 4-12 4-11 0-18-8-18-19s7-19 18-19c6 0 10 2 14 6l-6 6Z" fill="url(#eg)"/>
  <circle cx="52" cy="13" r="4" fill="#ff5a2f"/>
</svg>
